name C:\Users\u0150099\Documents\master_thesis\3dpredictsim\Results\debug\Fal_s1_mtj_sc_cspx10_oy_MTPm_k1_d01_MTJm_nl_MG_exp_table_d01_PF_Gefen2002_ls146_PIM_w1e+05_w1e+05_ig21.mot
datacolumns 128
datarows 4
range 1.61849840 1.65086836
endheader
time	pelvis_tilt	pelvis_list	pelvis_rotation	pelvis_tx	pelvis_ty	pelvis_tz	hip_flexion_l	hip_adduction_l	hip_rotation_l	hip_flexion_r	hip_adduction_r	hip_rotation_r	knee_angle_l	knee_angle_r	ankle_angle_l	ankle_angle_r	subtalar_angle_l	subtalar_angle_r	mtj_angle_l	mtj_angle_r	mtp_angle_l	mtp_angle_r	lumbar_extension	lumbar_bending	lumbar_rotation	arm_flex_l	arm_add_l	arm_rot_l	arm_flex_r	arm_add_r	arm_rot_r	elbow_flex_l	elbow_flex_r	pro_sup_l	pro_sup_r	glut_med1_l/activation	glut_med2_l/activation	glut_med3_l/activation	glut_min1_l/activation	glut_min2_l/activation	glut_min3_l/activation	semimem_l/activation	semiten_l/activation	bifemlh_l/activation	bifemsh_l/activation	sar_l/activation	add_long_l/activation	add_brev_l/activation	add_mag1_l/activation	add_mag2_l/activation	add_mag3_l/activation	tfl_l/activation	pect_l/activation	grac_l/activation	glut_max1_l/activation	glut_max2_l/activation	glut_max3_l/activation	iliacus_l/activation	psoas_l/activation	quad_fem_l/activation	gem_l/activation	peri_l/activation	rect_fem_l/activation	vas_med_l/activation	vas_int_l/activation	vas_lat_l/activation	med_gas_l/activation	lat_gas_l/activation	soleus_l/activation	tib_post_l/activation	flex_dig_l/activation	flex_hal_l/activation	tib_ant_l/activation	per_brev_l/activation	per_long_l/activation	per_tert_l/activation	ext_dig_l/activation	ext_hal_l/activation	ercspn_l/activation	intobl_l/activation	extobl_l/activation	glut_med1_r/activation	glut_med2_r/activation	glut_med3_r/activation	glut_min1_r/activation	glut_min2_r/activation	glut_min3_r/activation	semimem_r/activation	semiten_r/activation	bifemlh_r/activation	bifemsh_r/activation	sar_r/activation	add_long_r/activation	add_brev_r/activation	add_mag1_r/activation	add_mag2_r/activation	add_mag3_r/activation	tfl_r/activation	pect_r/activation	grac_r/activation	glut_max1_r/activation	glut_max2_r/activation	glut_max3_r/activation	iliacus_r/activation	psoas_r/activation	quad_fem_r/activation	gem_r/activation	peri_r/activation	rect_fem_r/activation	vas_med_r/activation	vas_int_r/activation	vas_lat_r/activation	med_gas_r/activation	lat_gas_r/activation	soleus_r/activation	tib_post_r/activation	flex_dig_r/activation	flex_hal_r/activation	tib_ant_r/activation	per_brev_r/activation	per_long_r/activation	per_tert_r/activation	ext_dig_r/activation	ext_hal_r/activation	ercspn_r/activation	intobl_r/activation	extobl_r/activation	
          1.61849840	         -2.92194756	          2.09287282	         -3.74257900	          2.15260287	          0.91665014	          0.00277249	         28.14748246	          3.60167555	         -3.86654648	        -11.23418738	          1.82317250	          2.18618770	        -12.81156880	        -20.12313334	         10.54505800	         -3.07641936	         -2.69250708	         -8.19891077	        -10.94346053	         -3.24992641	         10.29335098	         37.44358351	         -3.01413476	         -0.67580657	          1.66585183	         -4.90967610	        -13.47637743	          5.78502952	          3.57590401	        -13.83524545	         19.19449763	         26.64422942	         33.89921059	         86.51662706	         86.51662706	          0.05000278	          0.05009114	          0.05001687	          0.05284878	          0.05015123	          0.05001928	          0.26856490	          0.08211264	          0.32202933	          0.07265970	          0.05000261	          0.07701885	          0.09763971	          0.11186353	          0.09033574	          0.16544327	          0.05001053	          0.05004299	          0.11298493	          0.05013510	          0.05127465	          0.15594344	          0.06824515	          0.07405618	          0.08363909	          0.05008142	          0.05001505	          0.05000090	          0.05000450	          0.05000379	          0.05000277	          0.06283381	          0.05000188	          0.05440749	          0.20207234	          0.05899050	          0.05000672	          0.43408668	          0.18371567	          0.38481477	          0.19438302	          0.56492842	          0.05282948	          0.05147684	          0.12834094	          0.15064570	          0.27359039	          0.05000104	          0.05000041	          0.48227914	          0.11905109	          0.05000261	          0.05000623	          0.05000057	          0.05000053	          0.05000049	          0.05000351	          0.14197843	          0.05000250	          0.05000498	          0.05002914	          0.05019007	          0.38573218	          0.05000777	          0.05000136	          0.05001529	          0.05000768	          0.05000635	          0.42008940	          0.58232619	          0.05000047	          0.05000145	          0.05000065	          0.57718748	          0.24890266	          0.25062763	          0.21311191	          0.28512106	          0.45883699	          0.13620474	          0.69959041	          0.36638728	          0.61438424	          0.05000006	          0.16574860	          0.59369158	          0.05000086	          0.05000015	          0.08202019	          0.05000011	          0.05000026	          0.05000020	
          1.62928838	         -2.92724558	          2.13565964	         -4.02339283	          2.16958747	          0.91513033	          0.00254297	         28.00636547	          3.79038836	         -3.74809468	        -12.01033214	          1.50962369	          1.95626708	        -12.81116293	        -20.20344422	         10.28646058	         -3.97163829	         -2.80718555	         -7.72888336	        -10.79891095	         -4.76282796	          9.60614630	         40.44170649	         -2.86635108	         -0.82307793	          1.78664876	         -5.58114068	        -13.45350068	          5.27689646	          3.36926982	        -13.79606173	         19.36005213	         25.85610487	         34.89097306	         86.51662706	         86.51662706	          0.11825162	          0.05000176	          0.05008945	          0.05000229	          0.05000281	          0.05004919	          0.25724595	          0.06960041	          0.31233487	          0.06960060	          0.05297489	          0.06528015	          0.08275815	          0.13853769	          0.07933112	          0.19946046	          0.05000313	          0.05701776	          0.10234369	          0.05003693	          0.06042970	          0.20549773	          0.05784386	          0.06276893	          0.15385460	          0.05422548	          0.05455527	          0.05000012	          0.05000025	          0.05000024	          0.05000021	          0.05899144	          0.05899142	          0.05794979	          0.24397986	          0.05000031	          0.05000085	          0.45175061	          0.18697918	          0.42072176	          0.25476639	          0.58530064	          0.06959978	          0.05447558	          0.11512858	          0.12768410	          0.27005115	          0.05000040	          0.05000016	          0.45517163	          0.10090593	          0.05000068	          0.05000459	          0.05000062	          0.05000052	          0.05000049	          0.05000575	          0.16732572	          0.05777778	          0.05000426	          0.05002027	          0.05651195	          0.32699586	          0.05810466	          0.05000113	          0.05000505	          0.05000293	          0.05000251	          0.35605875	          0.65360145	          0.05000023	          0.05000050	          0.05000019	          0.50424646	          0.25457091	          0.25533990	          0.21734595	          0.25365852	          0.42908745	          0.11600658	          0.63647454	          0.31054544	          0.53508359	          0.05000004	          0.14048481	          0.50319965	          0.05000058	          0.05000009	          0.06952199	          0.05000009	          0.05000011	          0.05000036	
          1.64007837	         -2.92975197	          2.17103940	         -4.28950478	          2.18690820	          0.91356723	          0.00229054	         27.85481334	          3.97762532	         -3.60357542	        -12.71657915	          1.17535885	          1.72923959	        -13.48291558	        -20.38028918	          9.63110706	         -5.02572615	         -2.95290641	         -7.13388583	        -10.56255221	         -6.36785717	          8.96905136	         43.66723913	         -2.70409357	         -0.97144180	          1.90206098	         -6.29667750	        -13.45087170	          4.96010886	          3.06990273	        -13.74579850	         19.38565408	         25.10629824	         35.91629704	         86.51662706	         86.51662706	          0.10022780	          0.05001186	          0.05001407	          0.05000180	          0.05000336	          0.05000207	          0.21803597	          0.05899184	          0.26534621	          0.05899201	          0.05940906	          0.05533039	          0.07014429	          0.13166701	          0.06724253	          0.22054535	          0.05000930	          0.05000455	          0.08674467	          0.05899114	          0.05899157	          0.24495921	          0.08195870	          0.08210918	          0.31174179	          0.09693003	          0.05000580	          0.08211646	          0.07528197	          0.12440499	          0.10287873	          0.05000003	          0.05000009	          0.05000000	          0.22293790	          0.09689968	          0.08185773	          0.43157922	          0.15847994	          0.44375189	          0.47513717	          0.61100818	          0.05899196	          0.05000006	          0.09758044	          0.10822221	          0.22888948	          0.05000043	          0.05000015	          0.38579369	          0.08552646	          0.05000204	          0.05003524	          0.05000094	          0.05000075	          0.05000114	          0.05000149	          0.14182246	          0.11592527	          0.05000230	          0.05002652	          0.08404302	          0.28897174	          0.05001707	          0.05000102	          0.05000313	          0.05000200	          0.05000202	          0.30178750	          0.57697751	          0.05000014	          0.05000106	          0.05000911	          0.42803187	          0.22512758	          0.24385839	          0.22149019	          0.21499530	          0.36368507	          0.09832458	          0.53946171	          0.26321168	          0.45352536	          0.05000003	          0.11907179	          0.42650072	          0.05000024	          0.05000006	          0.05899604	          0.05000003	          0.06960033	          0.05000029	
          1.65086836	         -2.93000685	          2.20886767	         -4.54496960	          2.20452319	          0.91195304	          0.00202231	         27.65225762	          4.14250182	         -3.41385232	        -13.35170887	          0.81170634	          1.49786303	        -14.75220173	        -20.64066485	          8.61233814	         -6.27658049	         -3.18730729	         -6.44721645	        -10.34067012	         -8.03124852	          8.38063572	         47.06800206	         -2.52838871	         -1.12630786	          2.01002276	         -7.05370792	        -13.46648093	          4.80623070	          2.68792132	        -13.69940519	         19.33844620	         24.39931362	         36.98933417	         86.51662706	         86.51662706	          0.32931945	          0.05000023	          0.41174537	          0.05000162	          0.05000075	          0.05000073	          0.18480246	          0.05000030	          0.22490166	          0.05000040	          0.06959902	          0.06963329	          0.20902076	          0.11166407	          0.13295633	          0.28258556	          0.05000297	          0.06961668	          0.07352347	          0.05000027	          0.05000029	          0.33780018	          0.06959928	          0.06959409	          0.26422546	          0.08215628	          0.13491088	          0.06960013	          0.10603904	          0.12741307	          0.09876795	          0.06959935	          0.06960039	          0.06953067	          0.20102884	          0.08213116	          0.06938108	          0.62409333	          0.49109148	          0.37611421	          0.40271690	          0.66838393	          0.05000027	          0.05389951	          0.08270704	          0.09172672	          0.19400185	          0.05000486	          0.05028144	          0.32699028	          0.07249098	          0.05000346	          0.05000252	          0.05000095	          0.05000208	          0.05000035	          0.05008640	          0.18907900	          0.18406040	          0.05899272	          0.05898740	          0.11202743	          0.24492730	          0.05911903	          0.05001228	          0.05223656	          0.05639895	          0.05898230	          0.25578844	          0.60443998	          0.05899165	          0.05000566	          0.05000042	          0.36279022	          0.19081321	          0.20668900	          0.18773021	          0.18222520	          0.30825135	          0.08333770	          0.45723562	          0.22309239	          0.38439803	          0.07156292	          0.10092261	          0.36149245	          0.05000014	          0.05000021	          0.05000465	          0.05581016	          0.05899172	          0.05000070	
